<svg xmlns="http://www.w3.org/2000/svg" width="300" height="28" viewBox="0 0 300 28"><g transform="translate(2 2)"><g class="nc-icon-wrapper" fill="#ffffff"><path d="M1.98 28.5a1.94 1.94 0 0 1-1.38-0.56 1.9 1.9 0 0 1-0.6-1.4c0-0.54 0.2-1.02 0.62-1.44l10.74-10.7-10.74-10.72a1.96 1.96 0 0 1-0.62-1.42c0-0.54 0.2-1 0.6-1.42a1.94 1.94 0 0 1 1.38-0.56 1.98 1.98 0 0 1 1.38 0.56l12.12 12.06a2.04 2.04 0 0 1 0 3l-12.12 12.06a1.9 1.9 0 0 1-1.38 0.54z" fill="#ffffff"></path></g></g><g transform="translate(24 2)"><g transform="scale(0.9473684210526315)"><g class="nc-icon-wrapper" fill="#ffffff"><path d="M0 2.4v21.98c0 0.67 0.55 1.22 1.22 1.22 0.25 0 0.5-0.08 0.7-0.22l7.68-5.38 7.68 5.38c0.2 0.14 0.45 0.22 0.7 0.22 0.67 0 1.22-0.55 1.22-1.22v-21.98c0-1.33-1.07-2.4-2.4-2.4h-14.4c-1.33 0-2.4 1.07-2.4 2.4z"></path></g></g></g><g transform="translate(46 2)"><g transform="scale(0.9545454545454546)"><g class="nc-icon-wrapper" fill="#ffffff"><path d="M0.4 12.8a2.8 2.8 0 1 1 5.6 0 2.8 2.8 0 1 1-5.6 0z m8 0a2.8 2.8 0 1 1 5.6 0 2.8 2.8 0 1 1-5.6 0z m10.8-2.8a2.8 2.8 0 1 1 0 5.6 2.8 2.8 0 1 1 0-5.6z"></path></g></g></g><g transform="translate(71 2)"><g transform="scale(0.9545454545454546)"><g class="nc-icon-wrapper" fill="#ffffff"><path d="M12.33 23.53c-0.63 0.63-1.64 0.63-2.27 0l-8-8c-0.63-0.63-0.63-1.64 0-2.27s1.64-0.63 2.27 0l6.87 6.87 6.87-6.86c0.63-0.63 1.64-0.63 2.27 0s0.63 1.64 0 2.26l-8 8z m8-17.6l-8 8c-0.63 0.63-1.64 0.63-2.27 0l-8-8c-0.63-0.63-0.63-1.64 0-2.27s1.64-0.63 2.27 0l6.87 6.87 6.87-6.86c0.63-0.63 1.64-0.63 2.26 0s0.63 1.64 0 2.27z"></path></g></g></g><g transform="translate(96 2)"><g transform="scale(0.9473684210526315)"><g class="nc-icon-wrapper" fill="#ffffff"><path d="M1.6 1.6c0-0.89 0.71-1.6 1.6-1.6h12.8c0.89 0 1.6 0.72 1.6 1.6s-0.72 1.6-1.6 1.6h-1.48l0.57 7.41c1.84 0.99 3.29 2.66 3.98 4.74l0.05 0.15c0.17 0.49 0.08 1.03-0.22 1.44s-0.78 0.67-1.3 0.66h-16c-0.52 0-0.99-0.25-1.3-0.66s-0.39-0.96-0.22-1.44l0.05-0.15c0.69-2.08 2.14-3.74 3.98-4.74l0.57-7.41h-1.48c-0.89 0-1.6-0.72-1.6-1.6z m6.4 17.6h3.2v4.8c0 0.89-0.72 1.6-1.6 1.6s-1.6-0.72-1.6-1.6v-4.8z"></path></g></g></g><g transform="translate(118 2)"><g transform="scale(0.9545454545454546)"><g class="nc-icon-wrapper" fill="#ffffff"><path d="M11.2 0c-0.89 0-1.6 0.72-1.6 1.6v0.96c-3.65 0.74-6.4 3.97-6.4 7.84v1.27c0 2.27-0.78 4.48-2.19 6.25l-0.74 0.93c-0.29 0.36-0.35 0.86-0.15 1.27s0.62 0.68 1.08 0.68h20c0.46 0 0.88-0.27 1.08-0.68s0.14-0.91-0.14-1.27l-0.75-0.93c-1.42-1.78-2.19-3.98-2.19-6.25v-1.27c0-3.87-2.75-7.1-6.4-7.84v-0.96c0-0.89-0.72-1.6-1.6-1.6z m0 4.8c3.1 0 5.6 2.51 5.6 5.6v1.27c0 2.4 0.7 4.73 1.99 6.73h-15.17c1.29-2 1.99-4.33 1.98-6.73v-1.27c0-3.1 2.51-5.6 5.6-5.6z m3.2 17.6h-6.4c0 0.85 0.34 1.67 0.94 2.27s1.42 0.93 2.26 0.93 1.67-0.34 2.27-0.94 0.93-1.42 0.93-2.26z"></path></g></g></g><g transform="translate(143 2)"><g transform="scale(0.9545454545454546)"><g class="nc-icon-wrapper" fill="#ffffff"><path d="M4 5.2a1.2 1.2 0 1 0 0-2.4 1.2 1.2 0 1 0 0 2.4z m4-1.2c0 1.64-0.98 3.05-2.4 3.67v4.38c0.94-0.55 2.04-0.86 3.2-0.85h4.8c1.76 0 3.2-1.44 3.2-3.2v-0.34c-1.42-0.62-2.4-2.02-2.4-3.66 0-2.21 1.79-4 4-4s4 1.79 4 4c0 1.64-0.98 3.05-2.4 3.67v0.33c0 3.54-2.87 6.4-6.4 6.4h-4.8c-1.76 0-3.2 1.44-3.2 3.2v0.34c1.42 0.62 2.4 2.02 2.4 3.66 0 2.21-1.79 4-4 4s-4-1.79-4-4c0-1.64 0.98-3.05 2.4-3.67v-10.27c-1.42-0.62-2.4-2.03-2.4-3.66 0-2.21 1.79-4 4-4s4 1.79 4 4z m11.6 0a1.2 1.2 0 1 0-2.4 0 1.2 1.2 0 1 0 2.4 0z m-15.6 18.8a1.2 1.2 0 1 0 0-2.4 1.2 1.2 0 1 0 0 2.4z"></path></g></g></g><g transform="translate(168 2)"><g transform="scale(0.9230769230769231)"><g class="nc-icon-wrapper" fill="#ffffff"><path d="M2 2.4c-0.67 0-1.2 0.54-1.2 1.2v2.4c0 0.67 0.54 1.2 1.2 1.2h2.4c0.67 0 1.2-0.54 1.2-1.2v-2.4c0-0.67-0.54-1.2-1.2-1.2h-2.4z m7.6 0.8c-0.89 0-1.6 0.72-1.6 1.6s0.72 1.6 1.6 1.6h14.4c0.89 0 1.6-0.72 1.6-1.6s-0.72-1.6-1.6-1.6h-14.4z m0 8c-0.89 0-1.6 0.72-1.6 1.6s0.72 1.6 1.6 1.6h14.4c0.89 0 1.6-0.72 1.6-1.6s-0.72-1.6-1.6-1.6h-14.4z m0 8c-0.89 0-1.6 0.72-1.6 1.6s0.72 1.6 1.6 1.6h14.4c0.89 0 1.6-0.72 1.6-1.6s-0.72-1.6-1.6-1.6h-14.4z m-8.8-7.6v2.4c0 0.67 0.54 1.2 1.2 1.2h2.4c0.67 0 1.2-0.54 1.2-1.2v-2.4c0-0.67-0.54-1.2-1.2-1.2h-2.4c-0.67 0-1.2 0.54-1.2 1.2z m1.2 6.8c-0.67 0-1.2 0.54-1.2 1.2v2.4c0 0.67 0.54 1.2 1.2 1.2h2.4c0.67 0 1.2-0.54 1.2-1.2v-2.4c0-0.67-0.54-1.2-1.2-1.2h-2.4z"></path></g></g></g><g transform="translate(196 2)"><g transform="scale(0.9545454545454546)"><g class="nc-icon-wrapper" fill="#ffffff"><path d="M12.8 4c0-0.89-0.72-1.6-1.6-1.6s-1.6 0.72-1.6 1.6v7.2h-7.2c-0.89 0-1.6 0.72-1.6 1.6s0.72 1.6 1.6 1.6h7.2v7.2c0 0.89 0.72 1.6 1.6 1.6s1.6-0.72 1.6-1.6v-7.2h7.2c0.89 0 1.6-0.72 1.6-1.6s-0.72-1.6-1.6-1.6h-7.2v-7.2z"></path></g></g></g><g transform="translate(221 2)"><g transform="scale(1.0434782608695652)"><g class="nc-icon-wrapper" fill="#ffffff"><path d="M0.16 0.92c0.26-0.56 0.82-0.92 1.44-0.92h17.28c0.62 0 1.18 0.36 1.44 0.92s0.18 1.22-0.2 1.7l-4.26 5.2c-3.21 0.66-5.62 3.5-5.62 6.9 0 1.1 0.25 2.14 0.7 3.06-0.06-0.03-0.13-0.07-0.19-0.12l-2.56-1.92c-0.32-0.24-0.51-0.62-0.51-1.02v-3.16l-7.32-8.95c-0.39-0.48-0.47-1.14-0.2-1.69z m17.12 8.04a5.76 5.76 0 1 1 0 11.52 5.76 5.76 0 1 1 0-11.52z m2.37 4.29c0.25-0.25 0.25-0.66 0-0.9s-0.66-0.25-0.9 0l-1.47 1.47-1.47-1.47c-0.25-0.25-0.66-0.25-0.9 0s-0.25 0.66 0 0.9l1.47 1.47-1.47 1.47c-0.25 0.25-0.25 0.66 0 0.9s0.66 0.25 0.9 0l1.47-1.47 1.47 1.47c0.25 0.25 0.66 0.25 0.9 0s0.25-0.66 0-0.9l-1.47-1.47 1.47-1.47z"></path></g></g></g><g transform="translate(249 2)"><g transform="scale(0.9230769230769231)"><g class="nc-icon-wrapper" fill="#ffffff"><path d="M3.75 3.75l-1.7-1.7c-0.76-0.76-2.05-0.22-2.05 0.84v5.51c0 0.67 0.54 1.2 1.2 1.2h5.5c1.07 0 1.61-1.29 0.85-2.05l-1.54-1.54c1.74-1.74 4.14-2.81 6.79-2.81 5.3 0 9.6 4.3 9.6 9.6s-4.3 9.6-9.6 9.6c-2.04 0-3.93-0.64-5.49-1.72-0.73-0.51-1.72-0.33-2.23 0.4s-0.33 1.72 0.4 2.23c2.08 1.44 4.6 2.29 7.32 2.29 7.07 0 12.8-5.73 12.8-12.8s-5.73-12.8-12.8-12.8c-3.53 0-6.73 1.44-9.05 3.75z m9.05 2.65c-0.67 0-1.2 0.54-1.2 1.2v5.2c0 0.32 0.13 0.63 0.35 0.85l3.6 3.6c0.47 0.47 1.23 0.47 1.7 0s0.47-1.23 0-1.69l-3.25-3.25v-4.71c0-0.67-0.54-1.2-1.21-1.2z"></path></g></g></g><g transform="translate(277 2)"><g transform="scale(0.9545454545454546)"><g class="nc-icon-wrapper" fill="#ffffff"><path d="M0 4.8c0-0.89 0.72-1.6 1.6-1.6h19.2c0.89 0 1.6 0.72 1.6 1.6s-0.72 1.6-1.6 1.6h-19.2c-0.89 0-1.6-0.72-1.6-1.6z m0 8c0-0.89 0.72-1.6 1.6-1.6h19.2c0.89 0 1.6 0.72 1.6 1.6s-0.72 1.6-1.6 1.6h-19.2c-0.89 0-1.6-0.72-1.6-1.6z m22.4 8c0 0.89-0.72 1.6-1.6 1.6h-19.2c-0.89 0-1.6-0.72-1.6-1.6s0.72-1.6 1.6-1.6h19.2c0.89 0 1.6 0.72 1.6 1.6z"></path></g></g></g></svg>